<svg
   version="1.1"
   id="svg1"
   width="177"
   height="174"
   viewBox="0 0 177 174"
   sodipodi:docname="favicon.svg"
   inkscape:version="1.4.2 (f4327f4, 2025-05-13)"
   xmlns:inkscape="http://www.inkscape.org/namespaces/inkscape"
   xmlns:sodipodi="http://sodipodi.sourceforge.net/DTD/sodipodi-0.dtd"
   xmlns="http://www.w3.org/2000/svg"
   xmlns:svg="http://www.w3.org/2000/svg">
  <defs
     id="defs1" />
  <sodipodi:namedview
     id="namedview1"
     pagecolor="#ffffff"
     bordercolor="#000000"
     borderopacity="0.25"
     inkscape:showpageshadow="2"
     inkscape:pageopacity="0.0"
     inkscape:pagecheckerboard="0"
     inkscape:deskcolor="#d1d1d1"
     inkscape:zoom="2.9544059"
     inkscape:cx="79.203741"
     inkscape:cy="78.357547"
     inkscape:window-width="1280"
     inkscape:window-height="971"
     inkscape:window-x="-8"
     inkscape:window-y="-8"
     inkscape:window-maximized="1"
     inkscape:current-layer="g1" />
  <g
     inkscape:groupmode="layer"
     inkscape:label="Image"
     id="g1">
    <path
       style="fill:#ffffff;stroke-width:1.01393"
       d="m 6.8306573,172.79721 c -1.7932402,-1.84356 -1.4480051,-6.44137 0.6287407,-8.37353 1.5642149,-1.45532 4.529521,-1.70143 20.5,-1.70143 18.004592,0 18.671259,-0.0734 18.671259,-2.05611 0,-1.13086 0.9,-2.98137 2,-4.11223 1.816292,-1.86725 3.333333,-2.05611 16.515819,-2.05611 14.515818,0 14.515818,0 14.25,-28.52858 C 79.130657,97.440644 79.130657,97.440644 49.630657,96.926616 16.493625,96.349208 16.180924,96.281592 8.4353709,88.018227 1.0994523,80.191888 0.6773518,78.077299 0.6526193,49.029166 0.6306573,23.234937 0.6306573,23.234937 3.6903364,16.940187 6.7372653,10.671668 10.810402,6.5235554 17.630657,2.7432675 20.951254,0.90274689 24.729484,0.78876521 91.340582,0.51958706 161.5505,0.23586397 161.5505,0.23586397 163.18062,2.7935457 c 0.89657,1.4067249 1.8515,4.3101534 2.12207,6.4520633 0.4875,3.85916 0.22806,4.196566 -28.68506,37.306228 -16.04736,18.376513 -30.0381,33.83127 -31.09054,34.3439 -3.19681,1.557146 -6.896435,-0.844569 -6.896435,-4.477002 0,-2.576043 4.259315,-7.933689 26.249995,-33.018889 14.4375,-16.469139 26.4,-30.361952 26.58333,-30.872916 0.18956,-0.5283 -6.40352,-0.929025 -15.28518,-0.929025 -15.13169,0 -15.58625,0.06198 -14.58333,1.988528 1.64709,3.163977 1.21215,5.991906 -1.18733,7.719716 -1.75046,1.26047 -5.14876,1.60038 -16,1.60038 -13.777483,0 -13.777483,0 -13.777483,31.355733 0,31.35573 0,31.35573 7.940228,31.35573 7.940225,0 7.940225,0 14.749995,5.349339 19.71493,15.486869 44.91345,36.189479 45.65,37.505169 2.11584,3.77948 -2.87555,9.45613 -6.91383,7.86301 -0.87852,-0.34657 -12.47135,-9.35522 -25.76185,-20.01921 -24.16455,-19.389088 -24.16455,-19.389088 -29.914543,-19.389386 -5.75,-2.98e-4 -5.75,-2.98e-4 -5.75,28.785296 0,28.78559 0,28.78559 16.428563,28.78559 17.82636,0 19.57143,0.51071 19.57143,5.72774 0,2.49671 0,2.49671 15.91111,2.49671 15.9111,0 15.9111,0 18.5,-3.16305 3.13611,-3.83163 3.2024,-5.43029 0.48686,-11.74145 -2.08981,-4.85692 -2.09068,-4.90099 -0.14967,-7.5841 4.19406,-5.79757 9.06759,-3.0905 11.79399,6.55112 2.70205,9.55551 -0.16144,17.99052 -8.28964,24.41895 -3.57471,2.82716 -3.57471,2.82716 -80.213672,2.82716 -58.274755,0 -76.9265147,-0.29561 -77.8389707,-1.23367 z M 79.39532,54.519276 C 79.130657,23.420558 79.130657,23.420558 62.5302,22.906529 42.31339,22.280522 40.796974,21.497704 44.10905,13.397005 c 0.671066,-1.6413 -0.109864,-1.7991 -8.903523,-1.7991 -11.206476,0 -14.762725,1.204935 -19.326044,6.548088 -4.492686,5.260449 -4.748826,6.848043 -4.748826,29.4339 0,22.628063 0.506889,26.386412 4.160836,30.850718 5.600572,6.842643 6.893933,7.091597 37.103827,7.141941 27.264663,0.04544 27.264663,0.04544 27,-31.053276 z"
       id="path1" />
  </g>
</svg>
